HIERARCHY
ROOT Hips
{
	OFFSET 0.000000 97.420761 0.000000
	CHANNELS 6 Xposition Yposition Zposition Xrotation Yrotation Zrotation
	JOINT RightUpLeg
	{
		OFFSET -8.571318 0.002251 -0.000250
		CHANNELS 6 Xposition Yposition Zposition Xrotation Yrotation Zrotation
		JOINT RightLeg
		{
			OFFSET 0.000000 -44.326080 -0.000105
			CHANNELS 6 Xposition Yposition Zposition Xrotation Yrotation Zrotation
			JOINT RightFoot
			{
				OFFSET 0.000000 -43.324329 -0.000176
				CHANNELS 6 Xposition Yposition Zposition Xrotation Yrotation Zrotation
				JOINT RightToeBase
				{
					OFFSET 0.000000 -7.938133 18.050686
					CHANNELS 6 Xposition Yposition Zposition Xrotation Yrotation Zrotation
					End Site
					{
						OFFSET 0.000000 0.000000 19.719055
					}
				}
			}
		}
	}
	JOINT LeftUpLeg
	{
		OFFSET 8.571318 -0.000084 0.000009
		CHANNELS 6 Xposition Yposition Zposition Xrotation Yrotation Zrotation
		JOINT LeftLeg
		{
			OFFSET 0.000000 -44.326080 -0.000105
			CHANNELS 6 Xposition Yposition Zposition Xrotation Yrotation Zrotation
			JOINT LeftFoot
			{
				OFFSET 0.000000 -43.324329 -0.000176
				CHANNELS 6 Xposition Yposition Zposition Xrotation Yrotation Zrotation
				JOINT LeftToeBase
				{
					OFFSET 0.000000 -7.938133 18.050686
					CHANNELS 6 Xposition Yposition Zposition Xrotation Yrotation Zrotation
					End Site
					{
						OFFSET 0.000000 0.000000 19.719055
					}
				}
			}
		}
	}
	JOINT Spine
	{
		OFFSET 0.000000 10.422829 -1.158092
		CHANNELS 6 Xposition Yposition Zposition Xrotation Yrotation Zrotation
		JOINT Spine1
		{
			OFFSET 0.000000 11.587624 0.000000
			CHANNELS 3 Xrotation Yrotation Zrotation
			JOINT Spine2
			{
				OFFSET 0.000000 10.579559 -0.000443
				CHANNELS 6 Xposition Yposition Zposition Xrotation Yrotation Zrotation
				JOINT Spine3
				{
					OFFSET 0.000000 10.567749 -0.000444
					CHANNELS 6 Xposition Yposition Zposition Xrotation Yrotation Zrotation
					JOINT LeftShoulder
					{
						OFFSET 3.218383 8.290512 0.000000
						CHANNELS 6 Xposition Yposition Zposition Xrotation Yrotation Zrotation
						JOINT LeftArm
						{
							OFFSET 15.038529 0.000000 0.000000
							CHANNELS 3 Xrotation Yrotation Zrotation
							JOINT LeftForeArm
							{
								OFFSET 32.129166 0.000000 0.000000
								CHANNELS 3 Xrotation Yrotation Zrotation
								JOINT LeftHand
								{
									OFFSET 26.275406 0.000000 0.000000
									CHANNELS 3 Xrotation Yrotation Zrotation
									End Site
									{
										OFFSET 26.275406 0.000000 0.000000
									}
								}
							}
						}
					}
					JOINT RightShoulder
					{
						OFFSET -3.218383 8.290512 0.000000
						CHANNELS 6 Xposition Yposition Zposition Xrotation Yrotation Zrotation
						JOINT RightArm
						{
							OFFSET -15.038529 0.000000 0.000000
							CHANNELS 3 Xrotation Yrotation Zrotation
							JOINT RightForeArm
							{
								OFFSET -32.129166 0.000000 0.000000
								CHANNELS 3 Xrotation Yrotation Zrotation
								JOINT RightHand
								{
									OFFSET -26.275406 0.000000 0.000000
									CHANNELS 3 Xrotation Yrotation Zrotation
									End Site
									{
										OFFSET -26.275406 0.000000 0.000000
									}
								}
							}
						}
					}
					JOINT Neck
					{
						OFFSET 0.000000 14.789474 0.000000
						CHANNELS 6 Xposition Yposition Zposition Xrotation Yrotation Zrotation
						JOINT Head
						{
							OFFSET 0.000000 9.838806 0.000953
							CHANNELS 6 Xposition Yposition Zposition Xrotation Yrotation Zrotation
							End Site
							{
								OFFSET 0.000000 9.838806 0.000000
							}
						}
					}
				}
			}
		}
	}
}
MOTION
Frames: 5
Frame Time: 0.016667
0.000000 97.420761 0.000000 -0.000000 0.000000 -0.000000 -8.571318 0.002251 -0.000250 -0.000000 0.000000 -0.000000 0.000000 -44.326080 -0.000105 -0.000000 0.000000 -0.000000 0.000000 -43.324329 -0.000176 -0.000000 0.000000 -0.000000 0.000000 -7.938133 18.050686 -0.000000 0.000000 -0.000000 8.571318 -0.000084 0.000009 -0.000000 0.000000 -0.000000 0.000000 -44.326080 -0.000105 -0.000000 0.000000 -0.000000 0.000000 -43.324329 -0.000176 -0.000000 0.000000 -0.000000 0.000000 -7.938133 18.050686 -0.000000 0.000000 -0.000000 0.000000 10.422829 -1.158092 -0.000000 0.000000 -0.000000 -0.000000 0.000000 -0.000000 0.000000 10.579559 -0.000443 -0.000000 0.000000 -0.000000 0.000000 10.567749 -0.000444 -0.000000 0.000000 -0.000000 3.218383 8.290512 0.000000 -0.000000 0.000000 -0.000000 -0.000000 0.000000 -0.000000 -0.000000 0.000000 -0.000000 -0.000000 0.000000 -0.000000 -3.218383 8.290512 0.000000 -0.000000 0.000000 -0.000000 -0.000000 0.000000 -0.000000 -0.000000 0.000000 -0.000000 -0.000000 0.000000 -0.000000 0.000000 14.789474 0.000000 -0.000000 0.000000 -0.000000 0.000000 9.838806 0.000953 -0.000000 0.000000 -0.000000 
7.951596 97.122383 10.537333 0.859021 -8.893529 2.551797 -8.571320 0.002240 -0.000250 0.195485 5.199121 -3.576952 0.000000 -44.326077 -0.000105 7.555320 -1.147924 0.978032 -0.000000 -43.324326 -0.000176 -9.195470 -5.092169 0.545158 -0.000000 -7.938132 18.050686 -0.000000 -0.000001 -0.000000 8.571318 -0.000083 0.000009 0.363964 -5.862735 -0.437682 0.000000 -44.326080 -0.000102 8.820323 2.635532 2.352708 -0.000000 -43.324329 -0.000175 -4.363038 25.224976 -5.068644 0.000001 -7.938133 18.050688 -3.118125 0.043390 -1.666747 -0.000001 10.422830 -1.158093 1.818023 -1.857407 -0.866536 -4.901157 -0.778524 -0.473014 -0.000001 10.579556 -0.000443 0.805171 -0.777989 -0.473861 -0.000001 10.567733 -0.000443 6.326996 -0.615789 -0.295972 3.218384 8.290521 -0.000001 -1.747636 0.022126 -6.026423 -9.901403 -7.876537 -79.752554 6.137573 -4.209453 -2.842576 1.818318 0.854245 -3.734707 -3.218382 8.290513 0.000002 -2.657773 -1.741703 8.619955 -14.900483 11.029343 77.965865 4.600253 4.157174 4.199657 -0.613719 -4.238826 5.748510 -0.000000 14.789481 -0.000002 16.726589 1.061249 -1.106864 -0.000000 9.838810 0.000957 -4.245471 2.310306 -1.661413 
8.139280 97.087799 10.739192 0.961851 -9.007551 2.621421 -8.571319 0.002252 -0.000251 0.136762 5.275933 -3.714819 0.000000 -44.326084 -0.000105 7.665005 -1.219795 1.120697 -0.000000 -43.324329 -0.000176 -9.338241 -5.171021 0.480393 0.000000 -7.938134 18.050688 -0.000000 0.000000 0.000000 8.571317 -0.000092 0.000008 0.318334 -6.094267 -0.662322 -0.000002 -44.326077 -0.000103 8.908782 2.995195 2.901300 -0.000002 -43.324326 -0.000177 -4.380811 25.517006 -5.487076 0.000000 -7.938132 18.050684 -3.003044 0.040653 -1.658737 -0.000000 10.422832 -1.158092 1.830303 -1.910412 -0.841548 -5.009971 -0.802652 -0.465389 -0.000000 10.579573 -0.000444 0.810462 -0.802605 -0.465472 0.000001 10.567732 -0.000443 6.445381 -0.633804 -0.287252 3.218382 8.290504 -0.000000 -1.818478 0.021567 -6.196451 -10.154838 -7.851480 -81.293246 6.255365 -4.272926 -2.885403 1.852332 0.875110 -3.789325 -3.218382 8.290517 -0.000001 -2.739309 -1.744632 8.657766 -15.322419 10.986253 79.456342 4.673002 4.219393 4.278092 -0.622102 -4.333856 5.864018 0.000001 14.789459 0.000002 17.052682 1.059504 -1.161649 0.000000 9.838788 0.000961 -4.342893 2.332594 -1.753723 
8.153924 97.065666 10.730540 1.041724 -8.947004 2.622676 -8.571319 0.002265 -0.000250 0.070071 5.245523 -3.755338 -0.000000 -44.326080 -0.000105 7.633220 -1.265150 1.223508 0.000000 -43.324333 -0.000176 -9.314041 -5.150971 0.423885 0.000000 -7.938132 18.050684 0.000000 0.000000 -0.000000 8.571315 -0.000082 0.000010 0.269466 -6.199309 -0.845676 0.000001 -44.326088 -0.000104 8.817259 3.273476 3.327276 -0.000001 -43.324337 -0.000175 -4.337524 25.304362 -5.758276 0.000003 -7.938131 18.050686 -2.848464 0.036552 -1.612765 -0.000001 10.422835 -1.158092 1.810071 -1.925236 -0.795884 -5.019153 -0.811482 -0.445867 0.000001 10.579555 -0.000444 0.801279 -0.811437 -0.445951 -0.000000 10.567730 -0.000443 6.438490 -0.638939 -0.272010 3.218383 8.290504 -0.000000 -1.855771 0.018345 -6.241925 -10.153051 -7.846562 -81.343831 6.248556 -4.255535 -2.876233 1.853881 0.884879 -3.771046 -3.218382 8.290512 -0.000001 -2.772305 -1.712811 8.533799 -15.380104 10.963832 79.470180 4.642138 4.198633 4.280228 -0.626916 -4.337091 5.858189 0.000001 14.789455 -0.000004 17.043709 1.042684 -1.192826 -0.000001 9.838801 0.000962 -4.358805 2.312791 -1.816248 
8.156893 97.050804 10.723442 1.111285 -8.895336 2.612470 -8.571318 0.002236 -0.000250 0.010163 5.216045 -3.772304 0.000000 -44.326077 -0.000105 7.612930 -1.302165 1.300730 0.000000 -43.324326 -0.000176 -9.304381 -5.135086 0.381527 -0.000000 -7.938132 18.050686 -0.000000 -0.000000 -0.000000 8.571315 -0.000097 0.000010 0.229268 -6.284863 -0.981726 0.000002 -44.326084 -0.000106 8.733225 3.499362 3.644797 -0.000001 -43.324329 -0.000175 -4.304514 25.117252 -5.955176 -0.000001 -7.938131 18.050686 -2.729764 0.033308 -1.569754 -0.000001 10.422818 -1.158092 1.794840 -1.937923 -0.752489 -5.026104 -0.819244 -0.427261 0.000000 10.579566 -0.000444 0.794327 -0.819202 -0.427345 -0.000000 10.567732 -0.000445 6.433271 -0.643342 -0.257534 3.218381 8.290518 0.000000 -1.889872 0.015758 -6.280386 -10.151457 -7.849306 -81.384491 6.240063 -4.243940 -2.868539 1.858163 0.896376 -3.756174 -3.218384 8.290504 0.000000 -2.802808 -1.686940 8.430982 -15.437556 10.944753 79.479503 4.604258 4.183755 4.285143 -0.633849 -4.335644 5.848887 -0.000001 14.789463 0.000001 17.033769 1.029263 -1.221420 -0.000001 9.838810 0.000950 -4.376547 2.298306 -1.872877 
